<svg xmlns="http://www.w3.org/2000/svg" width="791" height="751" stroke="#000" stroke-linecap="round" stroke-linejoin="round" fill="#fff" fill-rule="evenodd">
    <defs>
        <linearGradient id="A" x1="0%" y1="0%" x2="100%" y2="100%">
            <stop offset="0%" stop-color="#e01f15"/>
            <stop offset="55%" stop-color="#530a15"/>
        </linearGradient>
    </defs>
    <path d="M405.5 730.5c196.67 0 355-158.33 355-355s-158.33-355-355-355-355 158.33-355 355 158.3237 354.9937 355 355z" fill="#c66"/>
    <path d="M395.395352731528.5C176.404160397492.5.5 169.3296875.5 375.5s175.904160397492 375 394.895352731528 375S790.5 581.8690625 790.5 375.5 614.595839602508.5 395.395352731528.5zm-35.76665933528 170.4178125V51.5459375h71.742613207504v119.371875h35.97496663384l-71.74162596912 138.043125-71.742613207498-138.043125h35.766659335274zm-161.681017030485 272.709375L52.580773595 375.5l145.366902770763-68.1271875v34.1625h125.70506315826v68.128125h-125.70506315826v33.96375zM431.371306603753 563v119.3728125H359.62869339625V563h-35.975953872225l71.742613207504-138.043125L467.137965939026 563h-35.766659335273zm161.681017030484-119.3728125v-34.1625H467.346273237594v-68.128125h125.706050396643v-34.1625l145.36690277077 68.1271875-145.36690277077 68.3259375z" stroke="none" fill="url(#A)"/>
</svg>